<?xml version="1.0" standalone="no"?>
<!DOCTYPE svg PUBLIC "-//W3C//DTD SVG 1.1//EN" "http://www.w3.org/Graphics/SVG/1.1/DTD/svg11.dtd" >
<svg xmlns="http://www.w3.org/2000/svg">
<metadata></metadata>
<defs>
<font id="helveticaregular" horiz-adv-x="1138" >
<font-face units-per-em="2048" ascent="1638" descent="-410" />
<missing-glyph horiz-adv-x="569" />
<glyph horiz-adv-x="2048" />
<glyph horiz-adv-x="2048" />
<glyph unicode="&#xd;" horiz-adv-x="569" />
<glyph unicode=" "  horiz-adv-x="569" />
<glyph unicode="&#x09;" horiz-adv-x="569" />
<glyph unicode="&#xa0;" horiz-adv-x="569" />
<glyph unicode="!" horiz-adv-x="569" d="M184 0v209h199v-209h-199zM184 985v485h199v-485l-49 -635h-101z" />
<glyph unicode="&#x22;" horiz-adv-x="727" d="M143 948v522h150v-522h-150zM434 948v522h150v-522h-150z" />
<glyph unicode="#" d="M57 430l19 129h211l39 291h-211l18 129h211l59 430h138l-60 -430h254l60 430h137l-60 -430h211l-18 -129h-211l-41 -291h211l-18 -129h-211l-60 -430h-135l59 430h-256l-59 -430h-135l59 430h-211zM422 559h256l39 291h-254z" />
<glyph unicode="$" d="M66 436h180q10 -166 65.5 -233.5t206.5 -91.5v542q-201 47 -291 115q-133 98 -133 289q0 168 122 283.5t302 115.5v131h96v-131q404 -33 416 -389h-174q-12 96 -55 147q-57 68 -187 93v-490q254 -74 330 -131q121 -90 121 -285q0 -233 -162 -350q-123 -90 -289 -90v-197 h-96v197q-453 25 -452 475zM274 1069q0 -190 244 -231v469q-113 0 -178.5 -70t-65.5 -168zM614 111q129 0 203 79q68 70 68 179q0 82 -47 147q-45 59 -113 80l-111 35v-520z" />
<glyph unicode="%" horiz-adv-x="1820" d="M80 1077q0 145 102.5 245.5t247.5 100.5q143 0 245.5 -101t102.5 -245q0 -145 -102.5 -247.5t-245.5 -102.5q-145 0 -247.5 101.5t-102.5 248.5zM223 1077q0 -92 60.5 -149.5t144.5 -57.5q88 0 147.5 60.5t59.5 146.5t-59.5 144.5t-145.5 58.5t-146.5 -59.5t-60.5 -143.5 zM449 -39l808 1479h113l-811 -1479h-110zM1042 336q0 145 102.5 245.5t248.5 100.5q143 0 245.5 -101.5t102.5 -244.5q0 -145 -102.5 -247.5t-245.5 -102.5q-145 0 -248 101.5t-103 248.5zM1186 336q0 -92 60.5 -149.5t144.5 -57.5q88 0 147 60.5t59 146.5t-59 144.5 t-145 58.5t-146.5 -59.5t-60.5 -143.5z" />
<glyph unicode="&#x26;" horiz-adv-x="1366" d="M90 354q0 156 66.5 253.5t265.5 209.5q-90 111 -117 164q-39 74 -39 162q0 135 90 227q96 100 258 100t252 -96q78 -84 78 -207q0 -135 -92 -241q-51 -61 -172 -144l268 -319q39 104 60 229h170q-15 -185 -119 -375l262 -317h-234l-137 168q-86 -98 -170 -141 q-109 -57 -258 -58q-240 0 -354 150q-78 104 -78 235zM270 369q0 -123 103 -191q76 -53 162 -53q200 0 319 164l-332 405q-137 -88 -184 -141q-68 -76 -68 -184zM440 1155q1 -111 146 -256q184 127 184 254q0 88 -57 131q-41 31 -101 31q-172 0 -172 -160z" />
<glyph unicode="'" horiz-adv-x="391" d="M121 948v522h149v-522h-149z" />
<glyph unicode="(" horiz-adv-x="681" d="M139 535q0 260 90 499q82 219 256 467h125q-156 -295 -204 -446q-74 -233 -74 -570q0 -231 80 -460q53 -160 200 -449h-120q-182 274 -256 455q-96 240 -97 504z" />
<glyph unicode=")" horiz-adv-x="681" d="M70 1501h120q182 -274 256 -454q96 -240 97 -504q0 -260 -90 -500q-82 -219 -256 -467h-125q158 295 204 447q74 233 74 569q0 231 -78 461q-55 160 -202 448z" />
<glyph unicode="*" horiz-adv-x="796" d="M80 1210l41 113l215 -78v225h123v-225l215 78l41 -113l-221 -69l137 -189l-101 -69l-133 192l-133 -192l-100 69l137 189z" />
<glyph unicode="+" horiz-adv-x="1196" d="M80 442v150h444v442h150v-442h442v-150h-442v-442h-150v442h-444z" />
<glyph unicode="," horiz-adv-x="569" d="M178 0v217h213v-201q0 -285 -213 -317v94q109 10 109 207h-109z" />
<glyph unicode="-" horiz-adv-x="681" d="M90 475v184h502v-184h-502z" />
<glyph unicode="." horiz-adv-x="569" d="M178 0v217h213v-217h-213z" />
<glyph unicode="/" horiz-adv-x="569" d="M-35 -39l504 1548h135l-502 -1548h-137z" />
<glyph unicode="0" d="M76 700q0 293 92 482q125 258 401 258t402 -258q92 -189 92 -482t-92 -481q-125 -258 -402 -258q-276 0 -401 258q-92 188 -92 481zM268 700q0 -578 301 -577q301 -1 301 577t-301 578t-301 -578z" />
<glyph unicode="1" d="M207 1022v143q193 14 260 56q86 53 127 219h141v-1440h-192v1022h-336z" />
<glyph unicode="2" d="M53 0q12 383 338 571l191 111q145 84 190 131q74 78 74 205q0 102 -64 174q-76 86 -221 86q-176 0 -246 -139q-37 -74 -45 -215h-180q0 305 191 434q123 82 307 82q193 0 321.5 -117t128.5 -313q0 -174 -112 -293q-76 -80 -273 -189l-149 -82q-225 -123 -248 -276h782 v-170h-985z" />
<glyph unicode="3" d="M70 440h186q14 -317 307 -317q139 0 226.5 76.5t87.5 201.5q0 264 -336 265h-41q-27 -2 -41 -2v155q61 -4 94 -4q274 0 274 236q0 84 -53 145q-70 82 -213 82q-166 0 -233 -117q-37 -66 -47 -192h-177q0 195 91 315q119 156 374 156q205 0 328 -107q117 -104 117 -272 q0 -125 -64 -209q-49 -66 -121 -88v-4q240 -78 240 -336q0 -195 -121 -320q-139 -143 -397 -143q-145 0 -266 64q-193 100 -215 415z" />
<glyph unicode="4" d="M51 350v176l660 914h149v-934h211v-156h-211v-350h-180v350h-629zM217 506h463v653h-4z" />
<glyph unicode="5" d="M66 358h186q27 -242 305 -241q137 0 221 98q82 92 82 231q0 150 -92 238q-88 82 -227 82q-162 0 -267 -137l-155 8l108 772h746v-176h-611l-61 -395q117 90 279 90q188 0 323 -119q150 -131 150 -342q0 -180 -92 -313q-135 -193 -431 -193q-174 0 -290 78 q-150 102 -174 319z" />
<glyph unicode="6" d="M78 670q0 301 104 504q139 266 428 266q152 0 267 -82q141 -102 153 -301h-176q-39 221 -248 221q-184 0 -276 -209q-66 -147 -66 -324l4 -4q102 176 342 177q164 0 291 -99q160 -127 160 -358q0 -211 -137 -361q-63 -70 -136 -100q-88 -39 -229 -39q-238 0 -371 209 q-111 174 -110 500zM289 442q0 -129 71 -217q84 -102 232 -102q129 0 205.5 91t76.5 239q0 117 -61 198q-78 104 -229 105q-143 0 -219 -89.5t-76 -224.5z" />
<glyph unicode="7" d="M76 1233v176h995v-158q-162 -168 -311 -440q-213 -389 -281 -811h-198q37 289 208 645q166 340 379 588h-792z" />
<glyph unicode="8" d="M78 414q0 252 244 350q-195 74 -195 280q0 145 90 254q115 141 346 142q221 0 342 -123q103 -103 103 -248q0 -209 -185 -303q236 -98 236 -350q0 -190 -117 -314q-131 -141 -371 -141q-207 0 -346 111q-147 117 -147 342zM270 410q0 -111 60 -187q80 -100 248 -100 q289 0 288 272q0 139 -88 213q-80 68 -211 68q-143 0 -225 -84q-72 -74 -72 -182zM313 1053q0 -98 78 -162q72 -60 174 -60q115 0 185.5 66t70.5 166q0 82 -55 141q-72 74 -213 74q-129 0 -193 -78q-47 -59 -47 -147z" />
<glyph unicode="9" d="M86 946q0 209 119 346q127 147 344 148q504 0 504 -668q0 -262 -76 -463q-129 -348 -447 -348q-225 0 -340 141q-88 104 -88 244h181q16 -236 243 -235q147 0 229.5 129t116.5 409l-4 4q-39 -80 -132 -126t-197 -46q-203 0 -328 126t-125 339zM272 954q0 -311 293 -311 q102 0 174 57q102 82 103 271q0 133 -68 215q-78 92 -223 92q-125 0 -202 -89t-77 -235z" />
<glyph unicode=":" horiz-adv-x="569" d="M178 0v217h213v-217h-213zM178 840v217h213v-217h-213z" />
<glyph unicode=";" horiz-adv-x="569" d="M178 0v217h213v-201q0 -285 -213 -317v94q109 10 109 207h-109zM178 840v217h213v-217h-213z" />
<glyph unicode="&#x3c;" horiz-adv-x="1196" d="M98 446v144l1000 424v-164l-799 -332l799 -332v-163z" />
<glyph unicode="=" horiz-adv-x="1196" d="M80 236v149h1036v-149h-1036zM80 649v150h1036v-150h-1036z" />
<glyph unicode="&#x3e;" horiz-adv-x="1196" d="M98 23v163l799 332l-799 332v164l1000 -424v-144z" />
<glyph unicode="?" d="M115 1010q6 137 26 200q35 106 135 185q123 94 297 94q182 0 304 -103q131 -111 131 -299q0 -96 -45 -169q-37 -61 -147.5 -168t-139.5 -158q-41 -78 -39 -217h-180q0 164 43 252q33 66 151 188q109 113 133 152q31 49 31 133q0 86 -49 149q-66 84 -199 84 q-272 1 -272 -323h-180zM453 0v209h198v-209h-198z" />
<glyph unicode="@" horiz-adv-x="2078" d="M301 739q0 319 227.5 544.5t544.5 225.5q291 0 494 -180q211 -184 211 -459q0 -254 -176 -434q-154 -158 -314 -157q-125 0 -131 129l-4 -2q-119 -127 -246 -127q-129 0 -215 96t-86 231q0 219 129 387q139 178 344 178q162 1 236 -159l41 127h139q-23 -84 -121 -420 q-63 -215 -63 -248q0 -59 43 -59q104 0 197.5 139t93.5 303q0 240 -170 387q-162 141 -402 141q-270 0 -446 -189t-176 -466q0 -270 184 -454.5t452 -184.5q143 0 276.5 62.5t221.5 171.5h137q-100 -168 -271 -264.5t-368 -96.5q-330 0 -556 225.5t-226 552.5zM774 625 q0 -88 48 -143.5t124 -55.5q123 0 217 143q88 132 88 267q0 76 -50 132t-118 56q-129 0 -223 -135q-86 -125 -86 -264z" />
<glyph unicode="A" horiz-adv-x="1366" d="M29 0l553 1470h225l532 -1470h-217l-145 428h-590l-154 -428h-204zM449 604h456l-217 647h-4z" />
<glyph unicode="B" horiz-adv-x="1366" d="M152 0v1470h647q197 0 311 -110q104 -100 104 -260q0 -215 -196 -307q115 -47 170 -99q96 -96 96 -260q0 -186 -127 -305q-137 -129 -373 -129h-632zM350 170h424q152 0 231.5 71.5t79.5 196.5q0 248 -344 248h-391v-516zM350 848h359q307 0 307 237q0 215 -305 215h-361 v-452z" />
<glyph unicode="C" horiz-adv-x="1478" d="M90 743q0 344 184.5 555t501.5 211q268 0 434 -147q147 -133 170 -334h-192q-66 305 -412 305q-209 0 -340 -147q-141 -158 -141 -436q0 -612 487 -613q131 0 234 74q141 102 186 330h193q-53 -354 -312 -498q-147 -82 -331 -82q-279 0 -457 180q-205 207 -205 602z" />
<glyph unicode="D" horiz-adv-x="1478" d="M166 0v1470h596q285 0 451.5 -196.5t166.5 -517.5q0 -299 -131 -502q-166 -254 -495 -254h-588zM365 170h385q197 0 311.5 149.5t114.5 423.5q0 272 -119 418q-115 139 -322 139h-370v-1130z" />
<glyph unicode="E" horiz-adv-x="1366" d="M176 0v1470h1071v-176h-872v-450h805v-176h-805v-492h887v-176h-1086z" />
<glyph unicode="F" horiz-adv-x="1251" d="M176 0v1470h1018v-176h-819v-450h721v-176h-721v-668h-199z" />
<glyph unicode="G" horiz-adv-x="1593" d="M98 748q0 301 168 516q194 245 526 245h3q225 0 397 -118q195 -135 225 -367h-192q-76 309 -441 309q-207 0 -340 -153q-141 -164 -141 -443q0 -606 490 -606q182 0 301 94q162 129 161 391h-458v170h645v-786h-129l-47 190q-76 -104 -206 -166.5t-280 -62.5 q-276 0 -450 166q-147 141 -201 332q-31 115 -31 289z" />
<glyph unicode="H" horiz-adv-x="1478" d="M158 0v1470h198v-608h768v608h199v-1470h-199v686h-768v-686h-198z" />
<glyph unicode="I" horiz-adv-x="569" d="M186 0v1470h199v-1470h-199z" />
<glyph unicode="J" horiz-adv-x="1024" d="M35 328v145h186v-102q0 -240 221 -240q236 0 236 254v1085h199v-1073q0 -236 -138 -346q-111 -90 -286 -90q-227 0 -338 131q-80 98 -80 236z" />
<glyph unicode="K" horiz-adv-x="1366" d="M156 0v1470h198v-712l713 712h274l-612 -593l629 -877h-258l-514 737l-232 -221v-516h-198z" />
<glyph unicode="L" d="M156 0v1470h198v-1294h746v-176h-944z" />
<glyph unicode="M" horiz-adv-x="1705" d="M150 0v1470h284l420 -1243h4l418 1243h283v-1470h-193v868q0 10 2 148.5t2 218.5h-4l-414 -1235h-196l-414 1233h-4q0 -80 2 -217t2 -148v-868h-192z" />
<glyph unicode="N" horiz-adv-x="1478" d="M156 0v1470h235l735 -1187h4v1187h193v-1470h-223l-748 1188h-4v-1188h-192z" />
<glyph unicode="O" horiz-adv-x="1593" d="M233 1241q193 268 564 268t565 -268q151 -213 151 -506t-151 -506q-195 -268 -565 -268q-371 0 -564 268q-153 212 -153 502q0 297 153 510zM285 735q0 -264 137 -428q139 -170 375 -170t377 170q135 164 135 428t-135 428q-141 170 -377 170t-374 -167t-138 -431z" />
<glyph unicode="P" horiz-adv-x="1366" d="M176 0v1470h662q201 0 318.5 -115.5t117.5 -297.5q0 -176 -98 -295q-117 -141 -338 -141h-463v-621h-199zM375 791h395q299 0 299 264q0 245 -289 245h-2h-403v-509z" />
<glyph unicode="Q" horiz-adv-x="1593" d="M233 1241q193 268 564 268t565 -268q152 -213 151 -506q0 -360 -213 -575l201 -156l-100 -119l-225 174q-154 -98 -379 -98q-371 0 -564 268q-153 212 -153 502q0 297 153 510zM285 735q0 -264 137 -428q139 -170 375 -170q123 0 217 47l-154 119l101 123l186 -145 q162 162 162 454q0 264 -135 428q-141 170 -377 170t-374 -167t-138 -431z" />
<glyph unicode="R" horiz-adv-x="1478" d="M180 0v1470h680q483 0 483 -395q0 -145 -67 -237q-43 -59 -137 -115q82 -35 116 -74q53 -66 60 -203l12 -266q2 -66 15.5 -94.5t58.5 -52.5v-33h-244q-35 109 -35 369q0 117 -41 176q-61 86 -221 86h-481v-631h-199zM379 801h461q299 0 299 254q0 245 -263 245h-2h-495 v-499z" />
<glyph unicode="S" horiz-adv-x="1366" d="M100 475h187q0 -182 133 -272q106 -72 272 -72q147 0 246 45q139 63 139 203q0 113 -64.5 165t-248.5 95l-301 70q-313 72 -313 346q0 190 118 313q137 141 387 141q549 0 574 -469h-187q-6 156 -122 236q-96 63 -242 63q-336 0 -336 -258q0 -147 174 -186l420 -96 q334 -76 334 -393q0 -236 -193 -353q-154 -92 -383 -92q-289 0 -444 141q-150 135 -150 373z" />
<glyph unicode="T" horiz-adv-x="1251" d="M29 1294v176h1194v-176h-498v-1294h-199v1294h-497z" />
<glyph unicode="U" horiz-adv-x="1478" d="M162 489v981h198v-925q0 -219 119 -324q96 -84 254 -84q162 0 262 82q125 102 125 322v929h199v-954q0 -240 -145 -391q-158 -164 -447 -164q-279 0 -430 162q-135 143 -135 366z" />
<glyph unicode="V" horiz-adv-x="1366" d="M41 1470h221l420 -1253h4l416 1253h223l-537 -1470h-210z" />
<glyph unicode="W" horiz-adv-x="1933" d="M33 1470h215l274 -1196h4l330 1196h217l330 -1196h4l274 1196h220l-388 -1470h-208l-336 1219h-4l-340 -1219h-209z" />
<glyph unicode="X" horiz-adv-x="1366" d="M39 0l526 754l-493 716h250l372 -563l373 563h238l-494 -716l516 -754h-246l-395 604l-407 -604h-240z" />
<glyph unicode="Y" horiz-adv-x="1366" d="M29 1470h231l422 -706l422 706h233l-555 -878v-592h-198v592z" />
<glyph unicode="Z" horiz-adv-x="1251" d="M47 0v166l901 1128h-833v176h1089v-172l-905 -1122h905v-176h-1157z" />
<glyph unicode="[" horiz-adv-x="569" d="M129 -401v1880h383v-146h-221v-1589h221v-145h-383z" />
<glyph unicode="\" horiz-adv-x="569" d="M-35 1509h135l504 -1548h-137z" />
<glyph unicode="]" horiz-adv-x="569" d="M57 -256h222v1589h-222v146h383v-1880h-383v145z" />
<glyph unicode="^" horiz-adv-x="960" d="M-29 541l437 868h147l434 -868h-158l-350 704l-350 -704h-160z" />
<glyph unicode="_" d="M0 -154h1139v-102h-1139v102z" />
<glyph unicode="`" horiz-adv-x="681" d="M29 1503h221l182 -289h-137z" />
<glyph unicode="a" d="M74 279q0 295 325 335l297 37q94 12 95 127q0 174 -252 174q-215 0 -246 -207h-166q12 356 442 357q129 0 232 -47q166 -76 166 -252v-617q0 -63 59 -63q18 0 59 8v-131q-76 -20 -98 -20q-178 0 -190 163q-160 -174 -387 -174q-147 0 -241.5 86t-94.5 224zM260 305 q0 -186 195 -186q129 0 230 74t101 178v176q-43 -35 -297 -68q-229 -31 -229 -174z" />
<glyph unicode="b" d="M119 0v1470h180v-534h4q115 166 309 166h5q203 0 325 -154q117 -147 117 -381q0 -233 -98 -395q-125 -203 -373 -203q-193 0 -295 164h-4v-133h-170zM291 485q0 -190 104 -286q78 -74 189 -74q141 0 219 119q69 109 69 295q0 401 -292 401q-289 0 -289 -455z" />
<glyph unicode="c" horiz-adv-x="1024" d="M61 506q0 264 125 422q135 174 389 174q193 0 302 -125q88 -104 100 -266h-174q-37 229 -254 229q-154 0 -232 -131q-63 -106 -63 -272q0 -412 293 -412q92 0 162.5 66.5t93.5 187.5h174q-16 -160 -107 -268q-119 -141 -329 -142q-221 0 -350.5 149.5t-129.5 387.5z" />
<glyph unicode="d" d="M72 567q0 233 119.5 384t326.5 151q193 0 320 -182l4 14v536h180v-1470h-170v147h-4q-96 -178 -305 -178q-248 0 -373 203q-98 162 -98 395zM258 539q0 -186 72 -295q76 -119 217 -119q111 0 190 74q102 96 103 286q0 455 -289 455q-293 0 -293 -401z" />
<glyph unicode="e" d="M82 506q0 264 125 422q135 174 389 174q227 0 344 -167t117 -458h-783q0 -352 312 -352q117 0 200 76q70 65 76 135h180q-6 -57 -47 -131q-55 -102 -143 -162q-111 -74 -291 -74q-221 0 -350 149.5t-129 387.5zM274 621h596q-20 319 -299 319q-123 0 -210 -96t-87 -223z " />
<glyph unicode="f" horiz-adv-x="569" d="M29 922v149h147v184q0 236 279 236q25 0 82 -4v-162q-45 4 -74 4q-106 0 -107 -125v-133h181v-149h-181v-922h-180v922h-147z" />
<glyph unicode="g" d="M82 567q0 233 120 384t326 151q193 0 320 -182h4v151h170v-983q0 -211 -64 -328q-115 -211 -434 -211q-371 0 -409 320h180q33 -170 242 -170q203 0 270 141q35 74 35 236v45h-4v-8q-90 -143 -285 -144q-248 0 -373 203q-98 162 -98 395zM268 539q0 -186 72 -295 q76 -119 217 -119q111 0 191 74q102 96 102 286q0 455 -289 455q-293 0 -293 -401z" />
<glyph unicode="h" d="M133 0v1470h180v-542h4q131 174 314 174q154 0 250 -72q125 -94 125 -301v-729h-181v700q0 119 -41 174q-51 66 -172 66q-127 0 -204 -76q-94 -94 -95 -280v-584h-180z" />
<glyph unicode="i" horiz-adv-x="454" d="M137 0v1071h180v-1071h-180zM137 1266v204h180v-204h-180z" />
<glyph unicode="j" horiz-adv-x="454" d="M-33 -268h37q84 0 108.5 21.5t24.5 109.5v1208h180v-1229q0 -272 -274 -272q-35 0 -76 6v156zM137 1266v204h180v-204h-180z" />
<glyph unicode="k" horiz-adv-x="1024" d="M137 0v1470h174v-852l461 453h229l-409 -399l434 -672h-231l-334 541l-150 -135v-406h-174z" />
<glyph unicode="l" horiz-adv-x="454" d="M137 0v1470h180v-1470h-180z" />
<glyph unicode="m" horiz-adv-x="1705" d="M133 0v1071h170v-151h4q123 182 324 182q190 0 284 -174q82 92 136 125q80 49 192 49q121 0 209 -68q123 -94 123 -293v-741h-180v692q0 248 -199 248q-109 0 -180.5 -87t-71.5 -200v-653h-180v741q0 199 -168 199q-104 0 -180 -70q-102 -94 -103 -286v-584h-180z" />
<glyph unicode="n" d="M133 0v1071h170v-151h4q123 182 324 182q154 0 250 -72q125 -94 125 -301v-729h-181v659q0 145 -51 213t-178 68q-104 0 -180 -70q-102 -94 -103 -286v-584h-180z" />
<glyph unicode="o" d="M72 537q0 229 121 387q137 178 376 178q240 0 377 -178q121 -158 121 -387t-121 -387q-137 -178 -377 -179q-240 0 -376 179q-121 158 -121 387zM258 537q0 -150 59 -258q82 -152 252 -152t252 152q59 109 60 258q0 150 -60 258q-81 151 -250 151h-2q-170 0 -252 -151 q-59 -108 -59 -258z" />
<glyph unicode="p" d="M119 -424v1495h170v-151h4q127 182 319 182q207 0 330 -154q117 -147 117 -381q0 -233 -98 -395q-125 -203 -373 -203q-195 0 -285 144h-4v-537h-180zM291 485q0 -190 104 -286q78 -74 189 -74q141 0 219 119q69 107 69 290v5q0 401 -292 401q-289 0 -289 -455z" />
<glyph unicode="q" d="M72 567q0 233 119.5 384t326.5 151q193 0 320 -182h4v151h170v-1495h-181v537h-4q-90 -143 -284 -144q-248 0 -373 203q-98 162 -98 395zM258 539q0 -186 72 -295q76 -119 217 -119q111 0 190 74q103 96 103 286q0 455 -289 455q-293 0 -293 -401z" />
<glyph unicode="r" horiz-adv-x="681" d="M158 0v1071h170v-178h4q121 209 301 209q27 0 47 -6v-187h-68q-123 0 -198.5 -82.5t-75.5 -203.5v-623h-180z" />
<glyph unicode="s" horiz-adv-x="1024" d="M66 344h174q16 -219 284 -219q104 0 175 43t71 127q0 61 -46 92t-167 62l-209 51q-248 61 -248 260q0 166 123 260q111 82 283 82q244 0 348 -148q61 -88 61 -188h-174q-6 180 -254 180q-84 0 -141 -33q-72 -41 -72 -118q0 -61 45 -93q35 -23 150 -51l180 -45 q166 -41 233.5 -106.5t67.5 -175.5q0 -162 -118.5 -258.5t-305.5 -96.5q-442 0 -460 375z" />
<glyph unicode="t" horiz-adv-x="569" d="M29 922v149h145v299h180v-299h172v-149h-172v-697q0 -84 109 -84h63v-141q-137 -12 -137 -14h2q-217 0 -217 229v707h-145z" />
<glyph unicode="u" d="M139 301v770h180v-711q0 -235 205 -235h2q156 0 234 121q61 94 61 235v590h180v-1071h-170v156l-4 4q-115 -190 -340 -191q-141 0 -233 70q-115 88 -115 262z" />
<glyph unicode="v" horiz-adv-x="1024" d="M16 1071h209l279 -872h4l303 872h197l-408 -1071h-192z" />
<glyph unicode="w" horiz-adv-x="1478" d="M29 1071h196l205 -842h4l207 842h201l209 -842h4l217 842h180l-311 -1071h-187l-217 829h-4l-209 -829h-186z" />
<glyph unicode="x" horiz-adv-x="1024" d="M23 0l376 551l-358 520h231l248 -377l248 377h221l-362 -520l377 -551h-230l-266 403l-258 -403h-227z" />
<glyph unicode="y" horiz-adv-x="1024" d="M23 1071h204l285 -872h4l287 872h198q-125 -350 -385 -1051q-92 -238 -133 -311q-51 -96 -112 -125q-47 -22 -164 -22h-10q-18 0 -76 16v164q51 -18 108 -18q68 0 99 40q25 35 92 207z" />
<glyph unicode="z" horiz-adv-x="1024" d="M63 0v141l646 781h-596v149h829v-147l-639 -774h658v-150h-898z" />
<glyph unicode="{" horiz-adv-x="684" d="M86 479v123q72 0 119 74t47 186v352q0 121 65 195q59 70 144 70h137v-133h-90q-94 0 -94 -168v-349q0 -131 -74 -215q-53 -57 -107 -71v-4q57 -16 107 -72q74 -84 74 -221v-346q0 -168 94 -168h90v-133h-137q-84 0 -144 69q-66 74 -65 195v350q0 115 -47 190.5t-119 75.5 z" />
<glyph unicode="|" horiz-adv-x="532" d="M193 -39v1548h149v-1548h-149z" />
<glyph unicode="}" horiz-adv-x="684" d="M86 -268h90q94 0 94 168v346q0 137 76 221q47 55 105 72v4q-53 14 -105 71q-76 84 -76 215v349q0 168 -94 168h-90v133h137q84 0 146.5 -72t62.5 -193v-352q0 -113 47 -186.5t119 -73.5v-123q-72 0 -119 -75.5t-47 -190.5v-350q0 -121 -62.5 -192.5t-146.5 -71.5h-137 v133z" />
<glyph unicode="~" horiz-adv-x="1196" d="M125 483q92 176 256 176q84 0 227 -65q162 -74 209 -74q84 1 180 148l74 -115q-111 -176 -256 -176q-86 0 -209 67q-129 72 -235 72q-104 0 -172 -147z" />
<glyph unicode="&#xa1;" horiz-adv-x="681" d="M242 86l49 635h100l49 -635v-485h-198v485zM242 862v209h198v-209h-198z" />
<glyph unicode="&#xa2;" d="M104 502q0 287 132.5 443.5t371.5 156.5q57 0 88 -12l54 186h79l-51 -205q82 -23 152 -96q96 -104 112 -268h-168q-41 172 -139 208l-225 -790q27 -8 72 -8q236 0 295 258h174q-18 -152 -113 -262q-127 -152 -350 -152q-33 0 -123 14l-64 -211h-84l70 234 q-283 135 -283 504zM285 502q0 -111 41.5 -206t107.5 -136l221 780q-16 6 -59 6q-139 0 -221 -104q-90 -117 -90 -340z" />
<glyph unicode="&#xa3;" d="M68 649v129h141q-88 180 -88 275q0 160 104 272q135 145 402 145q217 0 336 -137q104 -121 104 -299v-30h-180v18q0 129 -78 211t-203 82q-150 0 -231 -94q-61 -74 -62 -158q1 -95 105 -285h342v-129h-283q18 -70 19 -135q0 -94 -60 -190q-68 -109 -188 -191l4 4v-4 q133 76 268 76q70 0 188.5 -36t155.5 -36q92 0 156 64l84 -135q-129 -98 -260 -99q-57 0 -202.5 46t-225.5 46q-109 0 -240 -82l-100 142q139 92 205 217q45 88 45 166q0 59 -39 147h-219z" />
<glyph unicode="&#xa4;" d="M57 1137l99 98l116 -115q121 104 297 105q176 0 297 -105l117 115l98 -98l-112 -111q102 -117 102 -307q0 -182 -102 -309l110 -115l-92 -92l-113 119q-121 -113 -305 -113t-305 113l-112 -119l-93 92l111 115q-102 127 -102 309q0 190 102 307zM217 719 q0 -150 103.5 -258.5t248.5 -108.5t249 108.5t104 258.5q0 145 -103.5 253.5t-249.5 108.5q-145 0 -248.5 -108.5t-103.5 -253.5z" />
<glyph unicode="&#xa5;" d="M6 1409h205l358 -604l359 604h205l-396 -623h318v-116h-396v-174h396v-117h-396v-379h-180v379h-393v117h393v174h-393v116h315z" />
<glyph unicode="&#xa6;" horiz-adv-x="532" d="M193 -39v602h149v-602h-149zM193 942v567h149v-567h-149z" />
<glyph unicode="&#xa7;" d="M88 633q0 121 57 201q45 63 148 122q-96 104 -96 205q0 133 84 232q100 117 284 116q152 0 250 -73q127 -96 127 -301h-174q-14 219 -203 219q-72 0 -125 -37q-63 -45 -63 -129q0 -96 149 -184l299 -177q223 -131 224 -327q0 -195 -211 -328q106 -113 106 -233 q0 -150 -121 -244q-109 -86 -250 -86q-182 0 -286 90q-117 100 -117 295h180q0 -229 199 -230q215 0 215 170q0 86 -113 162l-430 287q-133 88 -133 250zM258 678q0 -115 92 -174l387 -250q141 92 142 207q0 118 -127 196l-357 220q-137 -70 -137 -199z" />
<glyph unicode="&#xa8;" horiz-adv-x="681" d="M82 1237v209h186v-209h-186zM414 1237v209h186v-209h-186z" />
<glyph unicode="&#xa9;" horiz-adv-x="1509" d="M-29 737q0 330 231.5 551t555.5 221q322 0 549 -219q233 -225 233 -553q0 -332 -230 -554t-552 -222q-324 0 -555.5 222.5t-231.5 553.5zM127 737q0 -279 181 -463t450 -184q264 0 445 184.5t181 462.5q0 274 -181 458.5t-445 184.5q-266 0 -448.5 -184.5t-182.5 -458.5z M328 739q0 209 121.5 341t326.5 132q152 0 256 -82q111 -88 131 -239h-137q-18 86 -85 136t-163 50q-139 0 -217 -94t-78 -242q0 -143 83 -243.5t218 -100.5q96 0 162 54.5t80 140.5h139q-29 -152 -133 -241t-248 -89q-205 0 -330.5 136.5t-125.5 340.5z" />
<glyph unicode="&#xaa;" horiz-adv-x="757" d="M49 1016q0 182 230 209l180 20q49 6 49 78q0 80 -156 80q-143 0 -157 -109h-111q8 215 289 215q84 0 151 -28q109 -45 109 -152v-364q0 -39 37 -39q10 0 39 4v-90q-51 -10 -66 -11q-115 0 -123 105q-104 -104 -252 -105q-96 0 -157.5 52.5t-61.5 134.5zM72 623v98h606 v-98h-606zM178 1038q0 -102 119 -102q84 0 147.5 44t63.5 107v80q-20 -20 -189 -41q-141 -16 -141 -88z" />
<glyph unicode="&#xab;" d="M199 473v189l321 251v-180l-215 -166l215 -166v-180zM618 473v189l322 251v-180l-215 -166l215 -166v-180z" />
<glyph unicode="&#xac;" horiz-adv-x="1196" d="M80 649v150h1036v-578h-149v428h-887z" />
<glyph unicode="&#xad;" horiz-adv-x="681" d="M90 475v184h502v-184h-502z" />
<glyph unicode="&#xae;" horiz-adv-x="1509" d="M-29 737q0 330 231.5 551t555.5 221q322 0 549 -219q233 -225 233 -553q0 -332 -230 -554t-552 -222q-324 0 -555.5 222.5t-231.5 553.5zM127 737q0 -279 181 -463t450 -184q264 0 445 184.5t181 462.5q0 274 -181 458.5t-445 184.5q-266 0 -448.5 -184.5t-182.5 -458.5z M459 289v893h340q315 0 315 -254q0 -217 -231 -246l254 -393h-152l-235 387h-156v-387h-135zM594 791h162q106 0 151 20q66 33 66 125q0 131 -195 131h-184v-276z" />
<glyph unicode="&#xaf;" horiz-adv-x="681" d="M20 1284v117h642v-117h-642z" />
<glyph unicode="&#xb0;" horiz-adv-x="819" d="M111 1141q0 127 86 213t213 86t213 -86t86 -213t-86 -213t-213 -86t-213 86t-86 213zM209 1141q0 -82 60.5 -146.5t140.5 -64.5t140 64.5t60 146.5t-60 146.5t-140 64.5t-140.5 -64.5t-60.5 -146.5z" />
<glyph unicode="&#xb1;" horiz-adv-x="1196" d="M80 0v150h1036v-150h-1036zM80 557v150h444v329h150v-329h442v-150h-442v-330h-150v330h-444z" />
<glyph unicode="&#xb2;" horiz-adv-x="681" d="M8 575q10 231 213 343l123 67q100 55 127 80q47 45 47 121q6 53 -33 90q-45 45 -139 45q-170 -1 -184 -191h-123q0 182 125 261q80 49 198 49q129 0 214.5 -71t85.5 -187q0 -106 -72 -178q-49 -49 -172 -113l-92 -47q-111 -57 -164 -144h500v-125h-654z" />
<glyph unicode="&#xb3;" horiz-adv-x="681" d="M10 840h140q10 -168 176 -168q197 0 196 145q0 96 -76 129q-43 18 -135 19h-47v104h55q168 0 168 137q0 115 -163 115q-156 0 -166 -164h-125q0 115 63 189q78 94 246 94q133 0 211 -63.5t78 -164.5q0 -143 -121 -178v-4q156 -41 156 -199q0 -117 -80 -192 q-90 -86 -262 -86q-90 0 -172 39q-126 60 -142 248z" />
<glyph unicode="&#xb4;" horiz-adv-x="681" d="M250 1214l182 289h221l-266 -289h-137z" />
<glyph unicode="&#xb6;" horiz-adv-x="1099" d="M37 1081q0 389 473 389h508v-1824h-150v1702h-243v-1702h-150v1059q-195 0 -316.5 107.5t-121.5 268.5z" />
<glyph unicode="&#xb7;" horiz-adv-x="569" d="M158 516q0 55 39 92t90 37q49 0 88 -38t39 -91q0 -51 -38 -89t-91 -38q-51 0 -89 38t-38 89z" />
<glyph unicode="&#xb8;" horiz-adv-x="681" d="M92 -416l35 82q78 -31 133 -31q115 0 115 86q0 37 -30 58.5t-69 21.5q-23 0 -79 -16l-35 39l131 176h96l-94 -127q45 8 63 8q90 0 136 -53q37 -41 36 -100q0 -82 -65.5 -135.5t-175.5 -53.5q-90 0 -197 45z" />
<glyph unicode="&#xb9;" horiz-adv-x="681" d="M88 1182v94q125 8 170 33q55 33 82 131h115v-865h-146v607h-221z" />
<glyph unicode="&#xba;" horiz-adv-x="747" d="M51 1169q0 182 105 271q84 70 219 69q135 0 219 -69q104 -89 104 -271t-104 -270q-84 -70 -219 -70t-219 70q-104 88 -105 270zM72 623v98h606v-98h-606zM188 1169q0 -233 187 -233q186 0 186 233t-186 234q-186 0 -187 -234z" />
<glyph unicode="&#xbb;" d="M199 221v180l215 166l-215 166v180l321 -251v-189zM618 221v180l216 166l-216 166v180l322 -251v-189z" />
<glyph unicode="&#xbc;" horiz-adv-x="1708" d="M150 1188v88q125 8 169 33q55 33 82 131h109v-865h-139v613h-221zM315 -39l906 1479h116l-905 -1479h-117zM858 193v122l422 549h131v-553h137v-118h-137v-193h-131v193h-422zM985 311h295v383h-4z" />
<glyph unicode="&#xbd;" horiz-adv-x="1708" d="M88 1182v94q125 8 170 33q55 33 82 131h115v-865h-146v607h-221zM242 -39l905 1479h117l-906 -1479h-116zM930 0q10 231 213 342l123 68q100 55 127 79q47 45 47 121q6 53 -33 90q-45 45 -139 45q-171 0 -185 -190h-122q0 182 124 260q80 49 199 49q129 0 214 -70.5 t85 -187.5q0 -106 -72 -178q-49 -49 -172 -113l-92 -47q-111 -57 -164 -143h500v-125h-653z" />
<glyph unicode="&#xbe;" horiz-adv-x="1708" d="M92 840h139q10 -168 177 -168q197 0 196 145q0 96 -76 129q-43 18 -135 19h-47v104h55q168 0 168 137q0 115 -163 115q-156 0 -166 -164h-125q0 115 63 189q78 94 246 94q133 0 211 -63.5t78 -164.5q0 -143 -121 -178v-4q156 -41 156 -199q0 -117 -80 -192 q-90 -86 -262 -86q-90 0 -173 39q-125 60 -141 248zM436 -39l905 1479h117l-905 -1479h-117zM969 193v122l422 549h131v-553h137v-118h-137v-193h-131v193h-422zM1096 311h295v383h-5z" />
<glyph unicode="&#xbf;" horiz-adv-x="1251" d="M186 -10q0 96 45 170q37 61 147.5 167.5t139.5 157.5q41 78 39 217h180q0 -164 -43 -251q-33 -66 -151 -189q-109 -113 -133 -151q-31 -49 -31 -134q0 -86 49 -149q66 -84 199 -84q272 0 272 324h180q-6 -137 -26 -201q-35 -106 -135 -184q-123 -94 -297 -95 q-182 0 -304 103q-131 111 -131 299zM543 866v209h198v-209h-198z" />
<glyph unicode="&#xc0;" horiz-adv-x="1366" d="M29 0l553 1470h225l532 -1470h-217l-145 428h-590l-154 -428h-204zM371 1902h221l182 -289h-137zM449 604h456l-217 647h-4z" />
<glyph unicode="&#xc1;" horiz-adv-x="1366" d="M29 0l553 1470h225l532 -1470h-217l-145 428h-590l-154 -428h-204zM449 604h456l-217 647h-4zM592 1613l182 289h221l-266 -289h-137z" />
<glyph unicode="&#xc2;" horiz-adv-x="1366" d="M29 0l553 1470h225l532 -1470h-217l-145 428h-590l-154 -428h-204zM385 1613l203 289h190l203 -289h-164l-135 191l-135 -191h-162zM449 604h456l-217 647h-4z" />
<glyph unicode="&#xc3;" horiz-adv-x="1366" d="M29 0l553 1470h225l532 -1470h-217l-145 428h-590l-154 -428h-204zM334 1640q31 219 213 219q63 0 139 -30l45 -19q66 -27 96 -27q83 1 103 95h102q-10 -96 -65.5 -160t-139.5 -64q-43 0 -120 27l-54 18q-88 31 -125 31q-68 0 -96 -90h-98zM449 604h456l-217 647h-4z" />
<glyph unicode="&#xc4;" horiz-adv-x="1366" d="M29 0l553 1470h225l532 -1470h-217l-145 428h-590l-154 -428h-204zM424 1636v209h186v-209h-186zM449 604h456l-217 647h-4zM756 1636v209h186v-209h-186z" />
<glyph unicode="&#xc5;" horiz-adv-x="1366" d="M29 0l553 1470h225l532 -1470h-217l-145 428h-590l-154 -428h-204zM449 604h456l-217 647h-4zM496 1718q0 82 53 135t135 53t135 -53t53 -135t-53 -135.5t-135 -53.5t-135 53.5t-53 135.5zM578 1718q0 -45 30.5 -76t75.5 -31t76 31t31 76t-31 75.5t-76 30.5t-75.5 -30.5 t-30.5 -75.5z" />
<glyph unicode="&#xc6;" horiz-adv-x="2048" d="M16 0l598 1470h1319v-176h-798v-450h729v-176h-729v-492h813v-176h-1012v428h-543l-162 -428h-215zM465 604h471v690h-199z" />
<glyph unicode="&#xc7;" horiz-adv-x="1478" d="M90 743q0 344 184.5 555t501.5 211q268 0 434 -147q147 -133 170 -334h-192q-66 305 -412 305q-209 0 -340 -147q-141 -158 -141 -436q0 -612 487 -613q131 0 234 74q141 102 186 330h193q-53 -354 -312 -498q-147 -82 -331 -82q-279 0 -457 180q-205 207 -205 602z M491 -416l35 82q78 -31 133 -31q115 0 115 86q0 37 -30 58.5t-69 21.5q-23 0 -79 -16l-35 39l131 176h96l-94 -127q45 8 63 8q90 0 136 -53q37 -41 36 -100q0 -82 -65.5 -135.5t-175.5 -53.5q-90 0 -197 45z" />
<glyph unicode="&#xc8;" horiz-adv-x="1366" d="M176 0v1470h1071v-176h-872v-450h805v-176h-805v-492h887v-176h-1086zM371 1902h221l182 -289h-137z" />
<glyph unicode="&#xc9;" horiz-adv-x="1366" d="M176 0v1470h1071v-176h-872v-450h805v-176h-805v-492h887v-176h-1086zM592 1613l182 289h221l-266 -289h-137z" />
<glyph unicode="&#xca;" horiz-adv-x="1366" d="M176 0v1470h1071v-176h-872v-450h805v-176h-805v-492h887v-176h-1086zM385 1613l203 289h190l203 -289h-164l-135 191l-135 -191h-162z" />
<glyph unicode="&#xcb;" horiz-adv-x="1366" d="M176 0v1470h1071v-176h-872v-450h805v-176h-805v-492h887v-176h-1086zM424 1636v209h186v-209h-186zM756 1636v209h186v-209h-186z" />
<glyph unicode="&#xcc;" horiz-adv-x="569" d="M-26 1902h221l182 -289h-137zM186 0v1470h199v-1470h-199z" />
<glyph unicode="&#xcd;" horiz-adv-x="569" d="M186 0v1470h199v-1470h-199zM195 1613l182 289h221l-266 -289h-137z" />
<glyph unicode="&#xce;" horiz-adv-x="569" d="M-12 1613l203 289h190l203 -289h-164l-135 191l-135 -191h-162zM186 0v1470h199v-1470h-199z" />
<glyph unicode="&#xcf;" horiz-adv-x="569" d="M27 1636v209h186v-209h-186zM186 0v1470h199v-1470h-199zM359 1636v209h186v-209h-186z" />
<glyph unicode="&#xd0;" horiz-adv-x="1478" d="M0 668v176h166v626h596q285 0 451.5 -196.5t166.5 -517.5q0 -236 -90 -424q-158 -332 -536 -332h-588v668h-166zM365 170h385q197 0 311.5 149.5t114.5 423.5q0 272 -119 418q-115 139 -322 139h-370v-456h393v-176h-393v-498z" />
<glyph unicode="&#xd1;" horiz-adv-x="1478" d="M156 0v1470h235l735 -1187h4v1187h193v-1470h-223l-748 1188h-4v-1188h-192zM412 1640q31 219 213 219q63 0 139 -30l45 -19q66 -27 96 -27q83 1 103 95h102q-10 -96 -65.5 -160t-139.5 -64q-43 0 -120 27l-54 18q-88 31 -125 31q-68 0 -96 -90h-98z" />
<glyph unicode="&#xd2;" horiz-adv-x="1593" d="M80 735q0 293 153 506q193 268 564 268t565 -268q151 -213 151 -506t-151 -506q-195 -268 -565 -268q-371 0 -564 268q-154 213 -153 506zM285 735q0 -264 137 -428q139 -170 375 -170t377 170q135 164 135 428t-135 428q-141 170 -377 170t-374 -167t-138 -431z M486 1902h221l182 -289h-137z" />
<glyph unicode="&#xd3;" horiz-adv-x="1593" d="M80 735q0 293 153 506q193 268 564 268t565 -268q151 -213 151 -506t-151 -506q-195 -268 -565 -268q-371 0 -564 268q-154 213 -153 506zM285 735q0 -264 137 -428q139 -170 375 -170t377 170q135 164 135 428t-135 428q-141 170 -377 170t-374 -167t-138 -431z M707 1613l182 289h221l-266 -289h-137z" />
<glyph unicode="&#xd4;" horiz-adv-x="1593" d="M80 735q0 293 153 506q193 268 564 268t565 -268q151 -213 151 -506t-151 -506q-195 -268 -565 -268q-371 0 -564 268q-154 213 -153 506zM285 735q0 -264 137 -428q139 -170 375 -170t377 170q135 164 135 428t-135 428q-141 170 -377 170t-374 -167t-138 -431z M500 1613l203 289h190l203 -289h-164l-135 191l-135 -191h-162z" />
<glyph unicode="&#xd5;" horiz-adv-x="1593" d="M80 735q0 293 153 506q193 268 564 268t565 -268q151 -213 151 -506t-151 -506q-195 -268 -565 -268q-371 0 -564 268q-154 213 -153 506zM285 735q0 -264 137 -428q139 -170 375 -170t377 170q135 164 135 428t-135 428q-141 170 -377 170t-374 -167t-138 -431z M449 1640q31 219 213 219q63 0 139 -30l45 -19q66 -27 96 -27q83 1 103 95h102q-10 -96 -65.5 -160t-139.5 -64q-43 0 -120 27l-54 18q-88 31 -125 31q-68 0 -96 -90h-98z" />
<glyph unicode="&#xd6;" horiz-adv-x="1593" d="M80 735q0 293 153 506q193 268 564 268t565 -268q151 -213 151 -506t-151 -506q-195 -268 -565 -268q-371 0 -564 268q-154 213 -153 506zM285 735q0 -264 137 -428q139 -170 375 -170t377 170q135 164 135 428t-135 428q-141 170 -377 170t-374 -167t-138 -431z M539 1636v209h186v-209h-186zM871 1636v209h186v-209h-186z" />
<glyph unicode="&#xd7;" horiz-adv-x="1196" d="M80 104l414 414l-414 414l106 104l412 -411l414 411l104 -104l-411 -414l411 -414l-104 -104l-414 412l-414 -412z" />
<glyph unicode="&#xd8;" horiz-adv-x="1593" d="M80 735q0 293 153 506q193 268 564 268q307 0 489 -182l166 182l64 -61l-170 -186q168 -215 167 -527q0 -293 -151 -506q-195 -268 -565 -268q-299 0 -484 178l-163 -178l-66 57l170 185q-174 217 -174 532zM285 735q0 -223 104 -385l766 834q-137 150 -358 149 q-236 0 -374 -167t-138 -431zM444 283q135 -145 353 -146q236 0 377 170q135 164 135 428q-1 227 -101 377z" />
<glyph unicode="&#xd9;" horiz-adv-x="1478" d="M162 489v981h198v-925q0 -219 119 -324q96 -84 254 -84q162 0 262 82q125 102 125 322v929h199v-954q0 -240 -145 -391q-158 -164 -447 -164q-279 0 -430 162q-135 143 -135 366zM428 1902h221l182 -289h-137z" />
<glyph unicode="&#xda;" horiz-adv-x="1478" d="M162 489v981h198v-925q0 -219 119 -324q96 -84 254 -84q162 0 262 82q125 102 125 322v929h199v-954q0 -240 -145 -391q-158 -164 -447 -164q-279 0 -430 162q-135 143 -135 366zM649 1613l182 289h221l-266 -289h-137z" />
<glyph unicode="&#xdb;" horiz-adv-x="1478" d="M162 489v981h198v-925q0 -219 119 -324q96 -84 254 -84q162 0 262 82q125 102 125 322v929h199v-954q0 -240 -145 -391q-158 -164 -447 -164q-279 0 -430 162q-135 143 -135 366zM442 1613l203 289h190l203 -289h-164l-135 191l-135 -191h-162z" />
<glyph unicode="&#xdc;" horiz-adv-x="1478" d="M162 489v981h198v-925q0 -219 119 -324q96 -84 254 -84q162 0 262 82q125 102 125 322v929h199v-954q0 -240 -145 -391q-158 -164 -447 -164q-279 0 -430 162q-135 143 -135 366zM481 1636v209h186v-209h-186zM813 1636v209h186v-209h-186z" />
<glyph unicode="&#xdd;" horiz-adv-x="1366" d="M29 1470h231l422 -706l422 706h233l-555 -878v-592h-198v592zM592 1613l182 289h221l-266 -289h-137z" />
<glyph unicode="&#xde;" horiz-adv-x="1366" d="M176 0v1470h199v-243h463q201 0 318.5 -116t117.5 -298q0 -176 -98 -295q-117 -141 -338 -141h-463v-377h-199zM375 547h395q299 0 299 264q0 246 -291 246h-403v-510z" />
<glyph unicode="&#xdf;" horiz-adv-x="1251" d="M137 0v1090q0 182 124 291.5t349 109.5t357.5 -100.5t132.5 -268.5q0 -195 -168 -303q106 -29 176 -135q61 -96 61 -197q0 -260 -147 -395q-135 -123 -369 -123q-41 0 -108 15v153q47 -6 90 -6q348 0 348 307q0 287 -348 287q-47 0 -80 -8v162q37 -4 47 -5q317 0 318 232 q0 102 -78 164q-84 66 -234 65q-164 0 -231 -80q-59 -68 -60 -211v-1044h-180z" />
<glyph unicode="&#xe0;" d="M74 279q0 295 325 335l297 37q94 12 95 127q0 174 -252 174q-215 0 -246 -207h-166q12 356 442 357q129 0 232 -47q166 -76 166 -252v-617q0 -63 59 -63q18 0 59 8v-131q-76 -20 -98 -20q-178 0 -190 163q-160 -174 -387 -174q-147 0 -241.5 86t-94.5 224zM258 1503h221 l182 -289h-137zM260 305q0 -186 195 -186q129 0 230 74t101 178v176q-43 -35 -297 -68q-229 -31 -229 -174z" />
<glyph unicode="&#xe1;" d="M74 279q0 295 325 335l297 37q94 12 95 127q0 174 -252 174q-215 0 -246 -207h-166q12 356 442 357q129 0 232 -47q166 -76 166 -252v-617q0 -63 59 -63q18 0 59 8v-131q-76 -20 -98 -20q-178 0 -190 163q-160 -174 -387 -174q-147 0 -241.5 86t-94.5 224zM260 305 q0 -186 195 -186q129 0 230 74t101 178v176q-43 -35 -297 -68q-229 -31 -229 -174zM479 1214l182 289h221l-266 -289h-137z" />
<glyph unicode="&#xe2;" d="M74 279q0 295 325 335l297 37q94 12 95 127q0 174 -252 174q-215 0 -246 -207h-166q12 356 442 357q129 0 232 -47q166 -76 166 -252v-617q0 -63 59 -63q18 0 59 8v-131q-76 -20 -98 -20q-178 0 -190 163q-160 -174 -387 -174q-147 0 -241.5 86t-94.5 224zM260 305 q0 -186 195 -186q129 0 230 74t101 178v176q-43 -35 -297 -68q-229 -31 -229 -174zM272 1214l203 289h190l203 -289h-164l-135 191l-135 -191h-162z" />
<glyph unicode="&#xe3;" d="M74 279q0 295 325 335l297 37q94 12 95 127q0 174 -252 174q-215 0 -246 -207h-166q12 356 442 357q129 0 232 -47q166 -76 166 -252v-617q0 -63 59 -63q18 0 59 8v-131q-76 -20 -98 -20q-178 0 -190 163q-160 -174 -387 -174q-147 0 -241.5 86t-94.5 224zM201 1241 q31 219 213 219q63 0 139 -30l45 -19q66 -27 96 -27q83 1 103 95h102q-10 -96 -65.5 -160t-139.5 -64q-43 0 -120 27l-54 18q-88 31 -125 31q-68 0 -96 -90h-98zM260 305q0 -186 195 -186q129 0 230 74t101 178v176q-43 -35 -297 -68q-229 -31 -229 -174z" />
<glyph unicode="&#xe4;" d="M74 279q0 295 325 335l297 37q94 12 95 127q0 174 -252 174q-215 0 -246 -207h-166q12 356 442 357q129 0 232 -47q166 -76 166 -252v-617q0 -63 59 -63q18 0 59 8v-131q-76 -20 -98 -20q-178 0 -190 163q-160 -174 -387 -174q-147 0 -241.5 86t-94.5 224zM260 305 q0 -186 195 -186q129 0 230 74t101 178v176q-43 -35 -297 -68q-229 -31 -229 -174zM311 1237v209h186v-209h-186zM643 1237v209h186v-209h-186z" />
<glyph unicode="&#xe5;" d="M74 279q0 295 325 335l297 37q94 12 95 127q0 174 -252 174q-215 0 -246 -207h-166q12 356 442 357q129 0 232 -47q166 -76 166 -252v-617q0 -63 59 -63q18 0 59 8v-131q-76 -20 -98 -20q-178 0 -190 163q-160 -174 -387 -174q-147 0 -241.5 86t-94.5 224zM260 305 q0 -186 195 -186q129 0 230 74t101 178v176q-43 -35 -297 -68q-229 -31 -229 -174zM383 1360q0 82 53 135t135 53t135 -53t53 -135t-53 -135.5t-135 -53.5t-135 53.5t-53 135.5zM465 1360q0 -45 30.5 -76t75.5 -31t76 31t31 76t-31 75.5t-76 30.5t-75.5 -30.5t-30.5 -75.5z " />
<glyph unicode="&#xe6;" horiz-adv-x="1820" d="M74 279q0 295 325 335l297 37q94 12 95 127q0 174 -252 174q-215 0 -246 -207h-166q12 356 442 357q137 0 224 -45q51 -29 125 -107q74 72 120 99q96 53 236 53q227 0 344 -167t117 -458h-783q0 -352 312 -352q117 0 200 76q70 65 76 135h180q-6 -57 -47 -131 q-55 -102 -143 -162q-111 -74 -291 -74q-268 0 -393 224q-147 -223 -436 -224q-147 0 -241.5 86t-94.5 224zM260 305q0 -186 195 -186q129 0 230 74t101 178v176q-43 -35 -297 -68q-229 -31 -229 -174zM952 621h596q-20 319 -299 319q-123 0 -210 -96t-87 -223z" />
<glyph unicode="&#xe7;" horiz-adv-x="1024" d="M61 506q0 264 125 422q135 174 389 174q193 0 302 -125q88 -104 100 -266h-174q-37 229 -254 229q-154 0 -232 -131q-63 -106 -63 -272q0 -412 293 -412q92 0 162.5 66.5t93.5 187.5h174q-16 -160 -107 -268q-119 -141 -329 -142q-221 0 -350.5 149.5t-129.5 387.5z M264 -416l35 82q78 -31 133 -31q115 0 115 86q0 37 -30 58.5t-69 21.5q-23 0 -79 -16l-35 39l131 176h96l-94 -127q45 8 63 8q90 0 136 -53q37 -41 36 -100q0 -82 -65.5 -135.5t-175.5 -53.5q-90 0 -197 45z" />
<glyph unicode="&#xe8;" d="M82 506q0 264 125 422q135 174 389 174q227 0 344 -167t117 -458h-783q0 -352 312 -352q117 0 200 76q70 65 76 135h180q-6 -57 -47 -131q-55 -102 -143 -162q-111 -74 -291 -74q-221 0 -350 149.5t-129 387.5zM258 1503h221l182 -289h-137zM274 621h596 q-20 319 -299 319q-123 0 -210 -96t-87 -223z" />
<glyph unicode="&#xe9;" d="M82 506q0 264 125 422q135 174 389 174q227 0 344 -167t117 -458h-783q0 -352 312 -352q117 0 200 76q70 65 76 135h180q-6 -57 -47 -131q-55 -102 -143 -162q-111 -74 -291 -74q-221 0 -350 149.5t-129 387.5zM274 621h596q-20 319 -299 319q-123 0 -210 -96t-87 -223z M479 1214l182 289h221l-266 -289h-137z" />
<glyph unicode="&#xea;" d="M82 506q0 264 125 422q135 174 389 174q227 0 344 -167t117 -458h-783q0 -352 312 -352q117 0 200 76q70 65 76 135h180q-6 -57 -47 -131q-55 -102 -143 -162q-111 -74 -291 -74q-221 0 -350 149.5t-129 387.5zM272 1214l203 289h190l203 -289h-164l-135 191l-135 -191 h-162zM274 621h596q-20 319 -299 319q-123 0 -210 -96t-87 -223z" />
<glyph unicode="&#xeb;" d="M82 506q0 264 125 422q135 174 389 174q227 0 344 -167t117 -458h-783q0 -352 312 -352q117 0 200 76q70 65 76 135h180q-6 -57 -47 -131q-55 -102 -143 -162q-111 -74 -291 -74q-221 0 -350 149.5t-129 387.5zM274 621h596q-20 319 -299 319q-123 0 -210 -96t-87 -223z M311 1237v209h186v-209h-186zM643 1237v209h186v-209h-186z" />
<glyph unicode="&#xec;" horiz-adv-x="569" d="M-26 1503h221l182 -289h-137zM195 0v1071h180v-1071h-180z" />
<glyph unicode="&#xed;" horiz-adv-x="569" d="M195 0v1071h180v-1071h-180zM195 1214l182 289h221l-266 -289h-137z" />
<glyph unicode="&#xee;" horiz-adv-x="569" d="M-12 1214l203 289h190l203 -289h-164l-135 191l-135 -191h-162zM195 0v1071h180v-1071h-180z" />
<glyph unicode="&#xef;" horiz-adv-x="569" d="M27 1237v209h186v-209h-186zM195 0v1071h180v-1071h-180zM359 1237v209h186v-209h-186z" />
<glyph unicode="&#xf0;" d="M72 520q0 219 121 377q131 174 348 174q168 0 272 -113l4 5q-63 158 -227 290l-254 -127l-86 86l242 117q-84 66 -183 107l152 73q106 -41 186 -104l217 104l97 -82l-220 -104q328 -301 328 -713q0 -334 -162 -504q-131 -137 -321 -137q-252 0 -391 174 q-123 152 -123 377zM258 520q0 -131 57 -239q82 -156 254 -156t254 156q57 109 58 239q0 131 -58 240q-82 156 -254 155q-172 0 -254 -155q-57 -109 -57 -240z" />
<glyph unicode="&#xf1;" d="M133 0v1071h170v-151h4q123 182 324 182q154 0 250 -72q125 -94 125 -301v-729h-181v659q0 145 -51 213t-178 68q-104 0 -180 -70q-102 -94 -103 -286v-584h-180zM201 1241q31 219 213 219q63 0 139 -30l45 -19q66 -27 96 -27q83 1 103 95h102q-10 -96 -65.5 -160 t-139.5 -64q-43 0 -120 27l-54 18q-88 31 -125 31q-68 0 -96 -90h-98z" />
<glyph unicode="&#xf2;" d="M72 537q0 229 121 387q137 178 376 178q240 0 377 -178q121 -158 121 -387t-121 -387q-137 -178 -377 -179q-240 0 -376 179q-121 158 -121 387zM258 537q0 -150 59 -258q82 -152 252 -152t252 152q59 109 60 258q0 150 -60 258q-82 152 -252 151q-170 0 -252 -151 q-59 -108 -59 -258zM258 1503h221l182 -289h-137z" />
<glyph unicode="&#xf3;" d="M72 537q0 229 121 387q137 178 376 178q240 0 377 -178q121 -158 121 -387t-121 -387q-137 -178 -377 -179q-240 0 -376 179q-121 158 -121 387zM258 537q0 -150 59 -258q82 -152 252 -152t252 152q59 109 60 258q0 150 -60 258q-82 152 -252 151q-170 0 -252 -151 q-59 -108 -59 -258zM479 1214l182 289h221l-266 -289h-137z" />
<glyph unicode="&#xf4;" d="M72 537q0 229 121 387q137 178 376 178q240 0 377 -178q121 -158 121 -387t-121 -387q-137 -178 -377 -179q-240 0 -376 179q-121 158 -121 387zM258 537q0 -150 59 -258q82 -152 252 -152t252 152q59 109 60 258q0 150 -60 258q-82 152 -252 151q-170 0 -252 -151 q-59 -108 -59 -258zM272 1214l203 289h190l203 -289h-164l-135 191l-135 -191h-162z" />
<glyph unicode="&#xf5;" d="M72 537q0 229 121 387q137 178 376 178q240 0 377 -178q121 -158 121 -387t-121 -387q-137 -178 -377 -179q-240 0 -376 179q-121 158 -121 387zM221 1241q31 219 213 219q63 0 139 -30l45 -19q66 -27 96 -27q83 1 103 95h102q-10 -96 -65.5 -160t-139.5 -64 q-43 0 -120 27l-54 18q-88 31 -125 31q-68 0 -96 -90h-98zM258 537q0 -150 59 -258q82 -152 252 -152t252 152q59 109 60 258q0 150 -60 258q-82 152 -252 151q-170 0 -252 -151q-59 -108 -59 -258z" />
<glyph unicode="&#xf6;" d="M72 537q0 229 121 387q137 178 376 178q240 0 377 -178q121 -158 121 -387t-121 -387q-137 -178 -377 -179q-240 0 -376 179q-121 158 -121 387zM258 537q0 -150 59 -258q82 -152 252 -152t252 152q59 109 60 258q0 150 -60 258q-82 152 -252 151q-170 0 -252 -151 q-59 -108 -59 -258zM311 1237v209h186v-209h-186zM643 1237v209h186v-209h-186z" />
<glyph unicode="&#xf7;" horiz-adv-x="1196" d="M80 442v150h1036v-150h-1036zM459 100q0 57 42 98.5t97 41.5q57 0 98 -41t41 -99q0 -53 -42 -96t-97 -43t-97 41t-42 98zM459 934q0 57 42 98t97 41q57 0 98 -41t41 -98q0 -53 -42 -96t-97 -43t-97 41t-42 98z" />
<glyph unicode="&#xf8;" horiz-adv-x="1251" d="M57 8l131 148q-117 158 -116 381q0 229 121 387q137 178 376 178q207 0 336 -133l131 147l64 -53l-142 -160q109 -152 109 -366q0 -229 -121 -387q-137 -178 -377 -179q-199 0 -325 123l-123 -139zM258 537q0 -133 51 -244l484 547q-82 106 -224 106q-170 0 -252 -151 q-59 -109 -59 -258zM356 221q76 -94 213 -94q170 0 252 152q59 109 60 258q0 129 -45 227z" />
<glyph unicode="&#xf9;" d="M139 301v770h180v-711q0 -236 207 -235q156 0 234 121q61 94 61 235v590h180v-1071h-170v156l-4 4q-115 -190 -340 -191q-141 0 -233 70q-115 88 -115 262zM258 1503h221l182 -289h-137z" />
<glyph unicode="&#xfa;" d="M139 301v770h180v-711q0 -236 207 -235q156 0 234 121q61 94 61 235v590h180v-1071h-170v156l-4 4q-115 -190 -340 -191q-141 0 -233 70q-115 88 -115 262zM479 1214l182 289h221l-266 -289h-137z" />
<glyph unicode="&#xfb;" d="M139 301v770h180v-711q0 -236 207 -235q156 0 234 121q61 94 61 235v590h180v-1071h-170v156l-4 4q-115 -190 -340 -191q-141 0 -233 70q-115 88 -115 262zM272 1214l203 289h190l203 -289h-164l-135 191l-135 -191h-162z" />
<glyph unicode="&#xfc;" d="M139 301v770h180v-711q0 -236 207 -235q156 0 234 121q61 94 61 235v590h180v-1071h-170v156l-4 4q-115 -190 -340 -191q-141 0 -233 70q-115 88 -115 262zM311 1237v209h186v-209h-186zM643 1237v209h186v-209h-186z" />
<glyph unicode="&#xfd;" horiz-adv-x="1024" d="M23 1071h204l285 -872h4l287 872h198q-125 -350 -385 -1051q-92 -238 -133 -311q-51 -96 -112 -125q-49 -23 -174 -22q-18 0 -76 16v164q51 -18 108 -18q68 0 99 40q25 35 92 207zM422 1214l182 289h221l-266 -289h-137z" />
<glyph unicode="&#xfe;" d="M119 -424v1894h180v-546h4q115 178 309 178q207 0 330 -154q117 -147 117 -381q0 -233 -98 -395q-125 -203 -373 -203q-195 0 -285 144h-4v-537h-180zM291 485q0 -190 104 -286q78 -74 189 -74q141 0 219 119q70 109 69 295q0 401 -292 401q-289 0 -289 -455z" />
<glyph unicode="&#xff;" horiz-adv-x="1024" d="M23 1071h204l285 -872h4l287 872h198q-125 -350 -385 -1051q-92 -238 -133 -311q-51 -96 -112 -125q-49 -23 -174 -22q-18 0 -76 16v164q51 -18 108 -18q68 0 99 40q25 35 92 207zM254 1237v209h186v-209h-186zM586 1237v209h186v-209h-186z" />
<glyph unicode="&#x152;" horiz-adv-x="2048" d="M74 727q0 289 121 500q166 283 507 282q252 0 365 -188h4v149h901v-176h-715v-450h682v-176h-682v-492h719v-176h-907v154h-4q-72 -92 -129 -129q-100 -63 -262 -64q-283 0 -445 217q-156 209 -155 549zM279 694q0 -180 51 -307q53 -133 144 -194.5t257 -61.5 q121 0 213 78q115 94 115 262v537q0 152 -98.5 241.5t-255.5 89.5q-426 0 -426 -645z" />
<glyph unicode="&#x153;" horiz-adv-x="1933" d="M72 537q0 229 121 387q137 178 376 178q270 -2 402 -217q141 217 415 217q227 0 344 -167t117 -458h-784q0 -352 313 -352q117 0 201 76q70 65 76 135h180q-6 -57 -47 -131q-55 -102 -144 -162q-111 -74 -290 -74q-256 0 -398 207q-106 -207 -385 -205q-240 2 -376 181 q-121 156 -121 385zM258 537q0 -150 59 -258q82 -152 252 -152t252 152q59 109 60 258q0 150 -60 258q-82 152 -252 151q-170 0 -252 -151q-59 -108 -59 -258zM1063 621h598q-20 319 -299 319q-123 0 -211 -96t-88 -223z" />
<glyph unicode="&#x178;" horiz-adv-x="1366" d="M29 1470h231l422 -706l422 706h233l-555 -878v-592h-198v592zM424 1636v209h186v-209h-186zM756 1636v209h186v-209h-186z" />
<glyph unicode="&#x2c6;" horiz-adv-x="681" d="M43 1214l203 289h190l203 -289h-164l-135 191l-135 -191h-162z" />
<glyph unicode="&#x2dc;" horiz-adv-x="681" d="M-8 1241q31 219 213 219q63 0 139 -30l45 -19q66 -27 96 -27q83 1 103 95h102q-10 -96 -65.5 -160t-139.5 -64q-43 0 -120 27l-54 18q-88 31 -125 31q-68 0 -96 -90h-98z" />
<glyph unicode="&#x2000;" horiz-adv-x="953" />
<glyph unicode="&#x2001;" horiz-adv-x="1906" />
<glyph unicode="&#x2002;" horiz-adv-x="953" />
<glyph unicode="&#x2003;" horiz-adv-x="1906" />
<glyph unicode="&#x2004;" horiz-adv-x="635" />
<glyph unicode="&#x2005;" horiz-adv-x="476" />
<glyph unicode="&#x2006;" horiz-adv-x="317" />
<glyph unicode="&#x2007;" horiz-adv-x="317" />
<glyph unicode="&#x2008;" horiz-adv-x="238" />
<glyph unicode="&#x2009;" horiz-adv-x="381" />
<glyph unicode="&#x200a;" horiz-adv-x="105" />
<glyph unicode="&#x2010;" horiz-adv-x="681" d="M90 475v184h502v-184h-502z" />
<glyph unicode="&#x2011;" horiz-adv-x="681" d="M90 475v184h502v-184h-502z" />
<glyph unicode="&#x2012;" horiz-adv-x="681" d="M90 475v184h502v-184h-502z" />
<glyph unicode="&#x2013;" d="M0 492v149h1139v-149h-1139z" />
<glyph unicode="&#x2014;" horiz-adv-x="2048" d="M0 492v149h2048v-149h-2048z" />
<glyph unicode="&#x2018;" horiz-adv-x="454" d="M133 963v200q0 272 213 322v-96q-109 -16 -108 -209h108v-217h-213z" />
<glyph unicode="&#x2019;" horiz-adv-x="454" d="M109 948v96q109 16 108 209h-108v217h213v-200q0 -272 -213 -322z" />
<glyph unicode="&#x201a;" horiz-adv-x="454" d="M109 0v217h213v-201q0 -272 -213 -321v96q109 16 108 209h-108z" />
<glyph unicode="&#x201c;" horiz-adv-x="681" d="M78 963v200q0 272 213 322v-96q-109 -16 -109 -209h109v-217h-213zM416 963v200q0 272 213 322v-96q-109 -16 -109 -209h109v-217h-213z" />
<glyph unicode="&#x201d;" horiz-adv-x="681" d="M53 948v96q109 16 109 209h-109v217h213v-200q0 -272 -213 -322zM391 948v96q109 16 109 209h-109v217h213v-200q0 -272 -213 -322z" />
<glyph unicode="&#x201e;" horiz-adv-x="681" d="M53 0v217h213v-201q0 -272 -213 -321v96q109 16 109 209h-109zM391 0v217h213v-201q0 -272 -213 -321v96q109 16 109 209h-109z" />
<glyph unicode="&#x2022;" horiz-adv-x="716" d="M37 735q0 135 93 229.5t228 94.5q133 0 228.5 -95.5t95.5 -228.5t-95 -227t-229 -94q-133 0 -227 93t-94 228z" />
<glyph unicode="&#x2026;" horiz-adv-x="2048" d="M236 0v217h213v-217h-213zM918 0v217h212v-217h-212zM1599 0v217h213v-217h-213z" />
<glyph unicode="&#x202f;" horiz-adv-x="381" />
<glyph unicode="&#x2039;" horiz-adv-x="681" d="M180 473v189l322 251v-180l-215 -166l215 -166v-180z" />
<glyph unicode="&#x203a;" horiz-adv-x="681" d="M180 221v180l215 166l-215 166v180l322 -251v-189z" />
<glyph unicode="&#x205f;" horiz-adv-x="476" />
<glyph unicode="&#x2122;" horiz-adv-x="2048" d="M94 1348v122h670v-122h-260v-721h-150v721h-260zM911 627v843h230l241 -620l238 620h229v-843h-149v686h-4l-264 -686h-103l-264 686h-4v-686h-150z" />
<glyph unicode="&#xe000;" horiz-adv-x="1075" d="M0 0v1075h1075v-1075h-1075z" />
</font>
</defs>
</svg>
